<svg viewBox="0 0 100 100" width="100" height="100" fill="none" xmlns="http://www.w3.org/2000/svg">

  <!-- Smart Contract Icon -->
  <path d="M15 30L50 5L85 30V70L50 95L15 70V30Z" fill="#29b6f6" />

  <!-- Book Icon -->
  <rect x="30" y="20" width="40" height="60" fill="#ab47bc" />
  <path d="M30 20L70 20L50 50L30 20Z" fill="#9c27b0" />

  <!-- Ethereum Icon -->
  <circle cx="50" cy="75" r="15" fill="#8a9cf5" />
  <circle cx="50" cy="60" r="5" fill="#ffffff" />

  <!-- NFT Icon -->
  <circle cx="80" cy="75" r="10" fill="#ff9800" />
  <path d="M85 65L75 85H85L95 65L85 65Z" fill="#ff9800" />

  <!-- Decentralized Web Icon -->
  <path d="M20 75L25 70L30 75L25 80Z" fill="#4caf50" />
  <path d="M35 75L40 70L45 75L40 80Z" fill="#4caf50" />
  <path d="M50 75L55 70L60 75L55 80Z" fill="#4caf50" />
  <path d="M65 75L70 70L75 75L70 80Z" fill="#4caf50" />
  <path d="M80 75L85 70L90 75L85 80Z" fill="#4caf50" />

  <!-- Crypto Text -->
  <text x="50" y="95" text-anchor="middle" fill="#ffffff" font-family="Arial" font-size="8">CRYPTO</text>

</svg>
