<svg viewBox="0 0 100 100" width="100" height="100" fill="none" role="img" xmlns="http://www.w3.org/2000/svg" xmlns:xlink='http://www.w3.org/1999/xlink'>

  <defs>
    <path
      id="text-path-a"
      d="M9 4
        H91
        A40 40 0 0 1 96 10
        V91
        A40 40 0 0 1 91 96
        H10
        A40 40 0 0 1 4 91
        V9
        A40 40 0 0 1 9 4 z" />
    <linearGradient id="gradient" x1="0%" y1="0%" x2="100%" y2="100%">
      <stop offset="0%" style="stop-color:#29b6f6;stop-opacity:1" />
      <stop offset="100%" style="stop-color:#ab47bc;stop-opacity:1" />
    </linearGradient>
  </defs>

  <rect width="100%" height="100%" rx="12" fill="url(#gradient)" />

  <rect width="90" height="90" x="5" y="5" rx="10" stroke-width="0.5" stroke="white" />

  <text text-anchor="middle" x="50" y="30" fill="white" font-size="6" font-weight="bold">
    Smart Contract
  </text>

  <g fill="none" stroke="white" stroke-width="0.5">
    <!-- Innermost Diamond -->
    <polygon points="70,76 72,80 70,84 68,80">
      <animateTransform attributeName="transform" type="rotate" from="0 70 80" to="360 70 80" dur="2s" repeatCount="indefinite" />
    </polygon>

    <!-- Middle Diamond -->
    <polygon points="70,74 72,80 70,86 68,80">
      <animateTransform attributeName="transform" type="rotate" from="0 70 80" to="360 70 80" dur="3s" repeatCount="indefinite" />
    </polygon>

    <!-- Outer Diamond -->
    <polygon points="70,72 72,80 70,88 68,80">
      <animateTransform attributeName="transform" type="rotate" from="0 70 80" to="360 70 80" dur="4s" repeatCount="indefinite" />
    </polygon>
  </g>

  <path d="M 40 60 L 60 60 L 55 70 L 45 70 Z" fill="#ffffff" />
  <path d="M 65 55 L 35 55 L 40 45 L 60 45 Z" fill="#ffffff" />

  <text text-rendering="optimizeSpeed">
    <textPath startOffset="-100%" fill="white" font-family="\'Courier New\', monospace" font-size="5px" xlink:href="#text-path-a">
      0xb994bebb・・・9161970539
      <animate additive="sum" attributeName="startOffset" from="0%" to="100%" begin="0s" dur="8s" repeatCount="indefinite" />
    </textPath>
    <textPath startOffset="0%" fill="white" font-family="\'Courier New\', monospace" font-size="5px" xlink:href="#text-path-a">
      0xb994bebb・・・9161970539
      <animate additive="sum" attributeName="startOffset" from="0%" to="100%" begin="0s" dur="8s" repeatCount="indefinite" />
    </textPath>
    <textPath startOffset="50%" fill="white" font-family="\'Courier New\', monospace" font-size="5px" xlink:href="#text-path-a">
      token ID : 13
      <animate additive="sum" attributeName="startOffset" from="0%" to="100%" begin="0s" dur="8s" repeatCount="indefinite" />
    </textPath>
    <textPath startOffset="-50%" fill="white" font-family="\'Courier New\', monospace" font-size="5px" xlink:href="#text-path-a">
      token ID : 13
      <animate additive="sum" attributeName="startOffset" from="0%" to="100%" begin="0s" dur="8s" repeatCount="indefinite" />
    </textPath>
  </text>
</svg>