<svg viewBox="0 0 100 100" width="100" height="100" fill="none" role="img" xmlns="http://www.w3.org/2000/svg" xmlns:xlink='http://www.w3.org/1999/xlink'>

  <defs>
    <path
      id="text-path-a"
      d="M6 4
        H93
        A30 30 0 0 1 96 9
        V93
        A30 30 0 0 1 93 96
        H4
        A30 30 0 0 1 3 93
        V4
        A30 30 0 0 1 6 4 z" />
    <linearGradient id="gradient" x1="0%" y1="0%" x2="100%" y2="100%">
      <stop offset="0%" style="stop-color:#29b6f6;stop-opacity:1" />
      <stop offset="100%" style="stop-color:#ab47bc;stop-opacity:1" />
    </linearGradient>
  </defs>

  <rect width="100%" height="100%" rx="12" fill="url(#gradient)" />

  <rect width="90" height="90" x="5" y="5" rx="10" stroke-width="0.5" stroke="white" />

  <text text-anchor="middle" x="50" y="30" fill="white" font-size="6" font-weight="bold">
    Smart Contract
  </text>

  <g fill="none" stroke="white" stroke-width="0.5">
    <circle cx="70" cy="80" r="4">
      <animate attributeName="r" values="4;2;4" dur="3s" repeatCount="indefinite" />
    </circle>
    <circle cx="70" cy="80" r="1">
      <animate attributeName="r" values="2;1;2" dur="2s" repeatCount="indefinite" />
    </circle>
    <polygon points="69,75 73,75 71,71">
      <animateTransform attributeName="transform" type="rotate" from="0 70 80" to="360 70 80" dur="5s" repeatCount="indefinite" />
      <animate attributeName="fill" values="white;#29b6f6;#ab47bc;white" dur="2s" repeatCount="indefinite" />
    </polygon>
  </g>

  <path d="M 40 60 L 60 60 L 55 70 L 45 70 Z" fill="#ffffff" />
  <path d="M 65 55 L 35 55 L 40 45 L 60 45 Z" fill="#ffffff" />

  <text text-rendering="optimizeSpeed">
    <textPath startOffset="-100%" fill="white" font-family="\'Courier New\', monospace" font-size="5px" xlink:href="#text-path-a">
      Smart Contract
      <animate additive="sum" attributeName="startOffset" from="0%" to="100%" begin="0s" dur="8s" repeatCount="indefinite" />
    </textPath>
    <textPath startOffset="0%" fill="white" font-family="\'Courier New\', monospace" font-size="5px" xlink:href="#text-path-a">
      Smart Contract
      <animate additive="sum" attributeName="startOffset" from="0%" to="100%" begin="0s" dur="8s" repeatCount="indefinite" />
    </textPath>
    <textPath startOffset="50%" fill="white" font-family="\'Courier New\', monospace" font-size="5px" xlink:href="#text-path-a">
      Smart Contract
      <animate additive="sum" attributeName="startOffset" from="0%" to="100%" begin="0s" dur="8s" repeatCount="indefinite" />
    </textPath>
    <textPath startOffset="-50%" fill="white" font-family="\'Courier New\', monospace" font-size="5px" xlink:href="#text-path-a">
      Smart Contract
      <animate additive="sum" attributeName="startOffset" from="0%" to="100%" begin="0s" dur="8s" repeatCount="indefinite" />
    </textPath>
  </text>
</svg>